<mxfile host="Electron" modified="2024-09-10T12:12:37.843Z" agent="Mozilla/5.0 (Windows NT 10.0; Win64; x64) AppleWebKit/537.36 (KHTML, like Gecko) draw.io/24.5.3 Chrome/124.0.6367.207 Electron/30.0.6 Safari/537.36" etag="oWNrPuSJP8zA329Afsq5" version="24.5.3" type="device">
  <diagram id="C5RBs43oDa-KdzZeNtuy" name="Page-1">
    <mxGraphModel dx="2049" dy="1194" grid="1" gridSize="10" guides="1" tooltips="1" connect="1" arrows="1" fold="1" page="1" pageScale="1" pageWidth="827" pageHeight="1169" math="0" shadow="0">
      <root>
        <mxCell id="WIyWlLk6GJQsqaUBKTNV-0" />
        <mxCell id="WIyWlLk6GJQsqaUBKTNV-1" parent="WIyWlLk6GJQsqaUBKTNV-0" />
        <mxCell id="dFhFB-FMK87UMPbcX7T7-2" value="" style="edgeStyle=orthogonalEdgeStyle;rounded=0;orthogonalLoop=1;jettySize=auto;html=1;flowAnimation=1;entryX=0;entryY=0.5;entryDx=0;entryDy=0;" edge="1" parent="WIyWlLk6GJQsqaUBKTNV-1" source="dFhFB-FMK87UMPbcX7T7-0" target="dFhFB-FMK87UMPbcX7T7-1">
          <mxGeometry relative="1" as="geometry" />
        </mxCell>
        <mxCell id="dFhFB-FMK87UMPbcX7T7-0" value="Customer Send Mail To &lt;font style=&quot;font-size: 10px;&quot;&gt;&lt;b&gt;&quot;support@valleysoft-eg.com&quot;&lt;/b&gt;&lt;br&gt;From&lt;br&gt;&lt;b&gt;&quot;customer@domain.com&quot;&lt;/b&gt;&lt;/font&gt;" style="rounded=0;whiteSpace=wrap;html=1;" vertex="1" parent="WIyWlLk6GJQsqaUBKTNV-1">
          <mxGeometry x="20" y="55" width="176" height="60" as="geometry" />
        </mxCell>
        <mxCell id="dFhFB-FMK87UMPbcX7T7-6" value="" style="edgeStyle=orthogonalEdgeStyle;rounded=0;orthogonalLoop=1;jettySize=auto;html=1;flowAnimation=1;" edge="1" parent="WIyWlLk6GJQsqaUBKTNV-1" source="dFhFB-FMK87UMPbcX7T7-1" target="dFhFB-FMK87UMPbcX7T7-5">
          <mxGeometry relative="1" as="geometry" />
        </mxCell>
        <mxCell id="dFhFB-FMK87UMPbcX7T7-9" value="&lt;font style=&quot;font-size: 16px;&quot;&gt;NO&lt;/font&gt;" style="edgeLabel;html=1;align=center;verticalAlign=middle;resizable=0;points=[];fontFamily=Helvetica;fontSize=11;fontColor=default;labelBackgroundColor=default;" vertex="1" connectable="0" parent="dFhFB-FMK87UMPbcX7T7-6">
          <mxGeometry x="-0.1143" y="-3" relative="1" as="geometry">
            <mxPoint as="offset" />
          </mxGeometry>
        </mxCell>
        <mxCell id="dFhFB-FMK87UMPbcX7T7-13" value="" style="edgeStyle=orthogonalEdgeStyle;rounded=0;orthogonalLoop=1;jettySize=auto;html=1;strokeColor=default;align=center;verticalAlign=middle;fontFamily=Helvetica;fontSize=11;fontColor=default;labelBackgroundColor=default;endArrow=classic;flowAnimation=1;" edge="1" parent="WIyWlLk6GJQsqaUBKTNV-1" source="dFhFB-FMK87UMPbcX7T7-1" target="dFhFB-FMK87UMPbcX7T7-12">
          <mxGeometry relative="1" as="geometry" />
        </mxCell>
        <mxCell id="dFhFB-FMK87UMPbcX7T7-20" value="YES" style="edgeLabel;html=1;align=center;verticalAlign=middle;resizable=0;points=[];fontFamily=Helvetica;fontSize=11;fontColor=default;labelBackgroundColor=default;" vertex="1" connectable="0" parent="dFhFB-FMK87UMPbcX7T7-13">
          <mxGeometry x="-0.1951" y="2" relative="1" as="geometry">
            <mxPoint as="offset" />
          </mxGeometry>
        </mxCell>
        <mxCell id="dFhFB-FMK87UMPbcX7T7-1" value="Check If This mail&lt;br&gt;in our customer users" style="rhombus;whiteSpace=wrap;html=1;rounded=0;" vertex="1" parent="WIyWlLk6GJQsqaUBKTNV-1">
          <mxGeometry x="240" y="20" width="156" height="130" as="geometry" />
        </mxCell>
        <mxCell id="dFhFB-FMK87UMPbcX7T7-8" value="" style="edgeStyle=orthogonalEdgeStyle;rounded=0;orthogonalLoop=1;jettySize=auto;html=1;strokeColor=default;align=center;verticalAlign=middle;fontFamily=Helvetica;fontSize=11;fontColor=default;labelBackgroundColor=default;endArrow=classic;flowAnimation=1;" edge="1" parent="WIyWlLk6GJQsqaUBKTNV-1" source="dFhFB-FMK87UMPbcX7T7-5" target="dFhFB-FMK87UMPbcX7T7-7">
          <mxGeometry relative="1" as="geometry" />
        </mxCell>
        <mxCell id="dFhFB-FMK87UMPbcX7T7-5" value="Send Mail to&lt;br&gt;&lt;b style=&quot;font-size: 10px;&quot;&gt;&quot;customer@domain.com&quot;&lt;/b&gt;&lt;br&gt;&quot;sorry you are not in our customer yet ...etc&quot;" style="whiteSpace=wrap;html=1;rounded=0;" vertex="1" parent="WIyWlLk6GJQsqaUBKTNV-1">
          <mxGeometry x="500" y="55" width="190" height="60" as="geometry" />
        </mxCell>
        <mxCell id="dFhFB-FMK87UMPbcX7T7-7" value="END" style="whiteSpace=wrap;html=1;rounded=0;" vertex="1" parent="WIyWlLk6GJQsqaUBKTNV-1">
          <mxGeometry x="740" y="55" width="60" height="60" as="geometry" />
        </mxCell>
        <mxCell id="dFhFB-FMK87UMPbcX7T7-15" value="" style="edgeStyle=orthogonalEdgeStyle;rounded=0;orthogonalLoop=1;jettySize=auto;html=1;strokeColor=default;align=center;verticalAlign=middle;fontFamily=Helvetica;fontSize=11;fontColor=default;labelBackgroundColor=default;endArrow=classic;flowAnimation=1;" edge="1" parent="WIyWlLk6GJQsqaUBKTNV-1" source="dFhFB-FMK87UMPbcX7T7-12" target="dFhFB-FMK87UMPbcX7T7-14">
          <mxGeometry relative="1" as="geometry" />
        </mxCell>
        <mxCell id="dFhFB-FMK87UMPbcX7T7-19" value="NO" style="edgeLabel;html=1;align=center;verticalAlign=middle;resizable=0;points=[];fontFamily=Helvetica;fontSize=11;fontColor=default;labelBackgroundColor=default;" vertex="1" connectable="0" parent="dFhFB-FMK87UMPbcX7T7-15">
          <mxGeometry x="-0.1333" y="-1" relative="1" as="geometry">
            <mxPoint as="offset" />
          </mxGeometry>
        </mxCell>
        <mxCell id="dFhFB-FMK87UMPbcX7T7-22" value="" style="edgeStyle=orthogonalEdgeStyle;rounded=0;orthogonalLoop=1;jettySize=auto;html=1;strokeColor=default;align=center;verticalAlign=middle;fontFamily=Helvetica;fontSize=11;fontColor=default;labelBackgroundColor=default;endArrow=classic;flowAnimation=1;" edge="1" parent="WIyWlLk6GJQsqaUBKTNV-1" source="dFhFB-FMK87UMPbcX7T7-12" target="dFhFB-FMK87UMPbcX7T7-21">
          <mxGeometry relative="1" as="geometry" />
        </mxCell>
        <mxCell id="dFhFB-FMK87UMPbcX7T7-23" value="YES" style="edgeLabel;html=1;align=center;verticalAlign=middle;resizable=0;points=[];fontFamily=Helvetica;fontSize=11;fontColor=default;labelBackgroundColor=default;" vertex="1" connectable="0" parent="dFhFB-FMK87UMPbcX7T7-22">
          <mxGeometry x="0.125" y="-2" relative="1" as="geometry">
            <mxPoint as="offset" />
          </mxGeometry>
        </mxCell>
        <mxCell id="dFhFB-FMK87UMPbcX7T7-12" value="he can&lt;br&gt;Add New Support Ticket" style="rhombus;whiteSpace=wrap;html=1;rounded=0;" vertex="1" parent="WIyWlLk6GJQsqaUBKTNV-1">
          <mxGeometry x="320" y="170" width="120" height="120" as="geometry" />
        </mxCell>
        <mxCell id="dFhFB-FMK87UMPbcX7T7-18" value="" style="edgeStyle=orthogonalEdgeStyle;rounded=0;orthogonalLoop=1;jettySize=auto;html=1;strokeColor=default;align=center;verticalAlign=middle;fontFamily=Helvetica;fontSize=11;fontColor=default;labelBackgroundColor=default;endArrow=classic;flowAnimation=1;" edge="1" parent="WIyWlLk6GJQsqaUBKTNV-1" source="dFhFB-FMK87UMPbcX7T7-14" target="dFhFB-FMK87UMPbcX7T7-16">
          <mxGeometry relative="1" as="geometry" />
        </mxCell>
        <mxCell id="dFhFB-FMK87UMPbcX7T7-14" value="Send Mail to&lt;br&gt;&lt;b style=&quot;font-size: 10px;&quot;&gt;&quot;customer@domain.com&quot;&lt;/b&gt;&lt;br&gt;&quot;sorry you dont have&amp;nbsp;permission to add ticket ...etc&quot;" style="whiteSpace=wrap;html=1;rounded=0;" vertex="1" parent="WIyWlLk6GJQsqaUBKTNV-1">
          <mxGeometry x="500" y="200" width="200" height="60" as="geometry" />
        </mxCell>
        <mxCell id="dFhFB-FMK87UMPbcX7T7-16" value="END" style="whiteSpace=wrap;html=1;rounded=0;" vertex="1" parent="WIyWlLk6GJQsqaUBKTNV-1">
          <mxGeometry x="740" y="200" width="60" height="60" as="geometry" />
        </mxCell>
        <mxCell id="dFhFB-FMK87UMPbcX7T7-25" value="" style="edgeStyle=orthogonalEdgeStyle;rounded=0;orthogonalLoop=1;jettySize=auto;html=1;strokeColor=default;align=center;verticalAlign=middle;fontFamily=Helvetica;fontSize=11;fontColor=default;labelBackgroundColor=default;endArrow=classic;flowAnimation=1;" edge="1" parent="WIyWlLk6GJQsqaUBKTNV-1" source="dFhFB-FMK87UMPbcX7T7-21" target="dFhFB-FMK87UMPbcX7T7-24">
          <mxGeometry relative="1" as="geometry" />
        </mxCell>
        <mxCell id="dFhFB-FMK87UMPbcX7T7-21" value="Apply SLA rule For this ticket" style="whiteSpace=wrap;html=1;rounded=0;" vertex="1" parent="WIyWlLk6GJQsqaUBKTNV-1">
          <mxGeometry x="120" y="200" width="120" height="60" as="geometry" />
        </mxCell>
        <mxCell id="dFhFB-FMK87UMPbcX7T7-27" value="" style="edgeStyle=orthogonalEdgeStyle;rounded=0;orthogonalLoop=1;jettySize=auto;html=1;strokeColor=default;align=center;verticalAlign=middle;fontFamily=Helvetica;fontSize=11;fontColor=default;labelBackgroundColor=default;endArrow=classic;flowAnimation=1;" edge="1" parent="WIyWlLk6GJQsqaUBKTNV-1" source="dFhFB-FMK87UMPbcX7T7-24" target="dFhFB-FMK87UMPbcX7T7-26">
          <mxGeometry relative="1" as="geometry" />
        </mxCell>
        <mxCell id="dFhFB-FMK87UMPbcX7T7-33" value="" style="edgeStyle=orthogonalEdgeStyle;rounded=0;orthogonalLoop=1;jettySize=auto;html=1;strokeColor=default;align=center;verticalAlign=middle;fontFamily=Helvetica;fontSize=11;fontColor=default;labelBackgroundColor=default;endArrow=classic;flowAnimation=1;" edge="1" parent="WIyWlLk6GJQsqaUBKTNV-1" source="dFhFB-FMK87UMPbcX7T7-24" target="dFhFB-FMK87UMPbcX7T7-32">
          <mxGeometry relative="1" as="geometry" />
        </mxCell>
        <mxCell id="dFhFB-FMK87UMPbcX7T7-24" value="Add Ticket in DB" style="whiteSpace=wrap;html=1;rounded=0;" vertex="1" parent="WIyWlLk6GJQsqaUBKTNV-1">
          <mxGeometry x="230" y="340" width="120" height="60" as="geometry" />
        </mxCell>
        <mxCell id="dFhFB-FMK87UMPbcX7T7-26" value="Send Mail to&lt;br&gt;&lt;b style=&quot;font-size: 10px;&quot;&gt;&quot;customer@domain.com&quot;&lt;/b&gt;&lt;br&gt;&quot;ticket #1111 Added...etc&quot;" style="whiteSpace=wrap;html=1;rounded=1;" vertex="1" parent="WIyWlLk6GJQsqaUBKTNV-1">
          <mxGeometry x="10" y="340" width="160" height="60" as="geometry" />
        </mxCell>
        <mxCell id="dFhFB-FMK87UMPbcX7T7-35" value="" style="edgeStyle=orthogonalEdgeStyle;rounded=0;orthogonalLoop=1;jettySize=auto;html=1;strokeColor=default;align=center;verticalAlign=middle;fontFamily=Helvetica;fontSize=11;fontColor=default;labelBackgroundColor=default;endArrow=classic;flowAnimation=1;" edge="1" parent="WIyWlLk6GJQsqaUBKTNV-1" source="dFhFB-FMK87UMPbcX7T7-32" target="dFhFB-FMK87UMPbcX7T7-34">
          <mxGeometry relative="1" as="geometry" />
        </mxCell>
        <mxCell id="dFhFB-FMK87UMPbcX7T7-36" value="NO" style="edgeLabel;html=1;align=center;verticalAlign=middle;resizable=0;points=[];fontFamily=Helvetica;fontSize=11;fontColor=default;labelBackgroundColor=default;" vertex="1" connectable="0" parent="dFhFB-FMK87UMPbcX7T7-35">
          <mxGeometry x="-0.175" y="3" relative="1" as="geometry">
            <mxPoint as="offset" />
          </mxGeometry>
        </mxCell>
        <mxCell id="dFhFB-FMK87UMPbcX7T7-38" value="" style="edgeStyle=orthogonalEdgeStyle;rounded=0;orthogonalLoop=1;jettySize=auto;html=1;strokeColor=default;align=center;verticalAlign=middle;fontFamily=Helvetica;fontSize=11;fontColor=default;labelBackgroundColor=default;endArrow=classic;flowAnimation=1;" edge="1" parent="WIyWlLk6GJQsqaUBKTNV-1" source="dFhFB-FMK87UMPbcX7T7-32" target="dFhFB-FMK87UMPbcX7T7-37">
          <mxGeometry relative="1" as="geometry" />
        </mxCell>
        <mxCell id="dFhFB-FMK87UMPbcX7T7-32" value="SLA rules&lt;br&gt;assign this ticket to team" style="rhombus;whiteSpace=wrap;html=1;rounded=0;" vertex="1" parent="WIyWlLk6GJQsqaUBKTNV-1">
          <mxGeometry x="414" y="310" width="120" height="120" as="geometry" />
        </mxCell>
        <mxCell id="dFhFB-FMK87UMPbcX7T7-39" style="edgeStyle=orthogonalEdgeStyle;rounded=0;orthogonalLoop=1;jettySize=auto;html=1;entryX=1;entryY=0.5;entryDx=0;entryDy=0;strokeColor=default;align=center;verticalAlign=middle;fontFamily=Helvetica;fontSize=11;fontColor=default;labelBackgroundColor=default;endArrow=classic;flowAnimation=1;exitX=0.5;exitY=1;exitDx=0;exitDy=0;" edge="1" parent="WIyWlLk6GJQsqaUBKTNV-1" source="dFhFB-FMK87UMPbcX7T7-34" target="dFhFB-FMK87UMPbcX7T7-37">
          <mxGeometry relative="1" as="geometry" />
        </mxCell>
        <mxCell id="dFhFB-FMK87UMPbcX7T7-34" value="L1 Support&lt;br&gt;assign this ticket to team&amp;nbsp;manual" style="whiteSpace=wrap;html=1;rounded=0;" vertex="1" parent="WIyWlLk6GJQsqaUBKTNV-1">
          <mxGeometry x="614" y="340" width="120" height="60" as="geometry" />
        </mxCell>
        <mxCell id="dFhFB-FMK87UMPbcX7T7-41" value="" style="edgeStyle=orthogonalEdgeStyle;rounded=0;orthogonalLoop=1;jettySize=auto;html=1;strokeColor=default;align=center;verticalAlign=middle;fontFamily=Helvetica;fontSize=11;fontColor=default;labelBackgroundColor=default;endArrow=classic;flowAnimation=1;" edge="1" parent="WIyWlLk6GJQsqaUBKTNV-1" source="dFhFB-FMK87UMPbcX7T7-37" target="dFhFB-FMK87UMPbcX7T7-40">
          <mxGeometry relative="1" as="geometry" />
        </mxCell>
        <mxCell id="dFhFB-FMK87UMPbcX7T7-37" value="Team manager assign to user" style="whiteSpace=wrap;html=1;rounded=0;" vertex="1" parent="WIyWlLk6GJQsqaUBKTNV-1">
          <mxGeometry x="500" y="470" width="120" height="60" as="geometry" />
        </mxCell>
        <mxCell id="dFhFB-FMK87UMPbcX7T7-43" value="" style="edgeStyle=orthogonalEdgeStyle;rounded=0;orthogonalLoop=1;jettySize=auto;html=1;strokeColor=default;align=center;verticalAlign=middle;fontFamily=Helvetica;fontSize=11;fontColor=default;labelBackgroundColor=default;endArrow=classic;flowAnimation=1;" edge="1" parent="WIyWlLk6GJQsqaUBKTNV-1" source="dFhFB-FMK87UMPbcX7T7-40" target="dFhFB-FMK87UMPbcX7T7-42">
          <mxGeometry relative="1" as="geometry" />
        </mxCell>
        <mxCell id="dFhFB-FMK87UMPbcX7T7-40" value="Work On Ticket" style="whiteSpace=wrap;html=1;rounded=0;" vertex="1" parent="WIyWlLk6GJQsqaUBKTNV-1">
          <mxGeometry x="320" y="470" width="120" height="60" as="geometry" />
        </mxCell>
        <mxCell id="dFhFB-FMK87UMPbcX7T7-45" value="" style="edgeStyle=orthogonalEdgeStyle;rounded=0;orthogonalLoop=1;jettySize=auto;html=1;strokeColor=default;align=center;verticalAlign=middle;fontFamily=Helvetica;fontSize=11;fontColor=default;labelBackgroundColor=default;endArrow=classic;flowAnimation=1;" edge="1" parent="WIyWlLk6GJQsqaUBKTNV-1" source="dFhFB-FMK87UMPbcX7T7-42" target="dFhFB-FMK87UMPbcX7T7-44">
          <mxGeometry relative="1" as="geometry" />
        </mxCell>
        <mxCell id="dFhFB-FMK87UMPbcX7T7-53" value="" style="edgeStyle=orthogonalEdgeStyle;rounded=0;orthogonalLoop=1;jettySize=auto;html=1;strokeColor=default;align=center;verticalAlign=middle;fontFamily=Helvetica;fontSize=11;fontColor=default;labelBackgroundColor=default;endArrow=classic;flowAnimation=1;" edge="1" parent="WIyWlLk6GJQsqaUBKTNV-1" source="dFhFB-FMK87UMPbcX7T7-42" target="dFhFB-FMK87UMPbcX7T7-52">
          <mxGeometry relative="1" as="geometry" />
        </mxCell>
        <mxCell id="dFhFB-FMK87UMPbcX7T7-42" value="Finish Work" style="whiteSpace=wrap;html=1;rounded=0;" vertex="1" parent="WIyWlLk6GJQsqaUBKTNV-1">
          <mxGeometry x="320" y="580" width="120" height="60" as="geometry" />
        </mxCell>
        <mxCell id="dFhFB-FMK87UMPbcX7T7-47" value="" style="edgeStyle=orthogonalEdgeStyle;rounded=0;orthogonalLoop=1;jettySize=auto;html=1;strokeColor=default;align=center;verticalAlign=middle;fontFamily=Helvetica;fontSize=11;fontColor=default;labelBackgroundColor=default;endArrow=classic;flowAnimation=1;" edge="1" parent="WIyWlLk6GJQsqaUBKTNV-1" source="dFhFB-FMK87UMPbcX7T7-44" target="dFhFB-FMK87UMPbcX7T7-46">
          <mxGeometry relative="1" as="geometry" />
        </mxCell>
        <mxCell id="dFhFB-FMK87UMPbcX7T7-44" value="Resolved" style="whiteSpace=wrap;html=1;rounded=0;" vertex="1" parent="WIyWlLk6GJQsqaUBKTNV-1">
          <mxGeometry x="550" y="660" width="120" height="60" as="geometry" />
        </mxCell>
        <mxCell id="dFhFB-FMK87UMPbcX7T7-49" value="" style="edgeStyle=orthogonalEdgeStyle;rounded=0;orthogonalLoop=1;jettySize=auto;html=1;strokeColor=default;align=center;verticalAlign=middle;fontFamily=Helvetica;fontSize=11;fontColor=default;labelBackgroundColor=default;endArrow=classic;flowAnimation=1;" edge="1" parent="WIyWlLk6GJQsqaUBKTNV-1" source="dFhFB-FMK87UMPbcX7T7-46" target="dFhFB-FMK87UMPbcX7T7-48">
          <mxGeometry relative="1" as="geometry" />
        </mxCell>
        <mxCell id="dFhFB-FMK87UMPbcX7T7-46" value="Send Mail to&lt;br&gt;&lt;b style=&quot;font-size: 10px;&quot;&gt;&quot;customer@domain.com&quot;&lt;/b&gt;&lt;br&gt;&quot;ticket #1111 Resolved...etc&quot;" style="whiteSpace=wrap;html=1;rounded=0;" vertex="1" parent="WIyWlLk6GJQsqaUBKTNV-1">
          <mxGeometry x="550" y="800" width="160" height="60" as="geometry" />
        </mxCell>
        <mxCell id="dFhFB-FMK87UMPbcX7T7-51" value="" style="edgeStyle=orthogonalEdgeStyle;rounded=0;orthogonalLoop=1;jettySize=auto;html=1;strokeColor=default;align=center;verticalAlign=middle;fontFamily=Helvetica;fontSize=11;fontColor=default;labelBackgroundColor=default;endArrow=classic;flowAnimation=1;" edge="1" parent="WIyWlLk6GJQsqaUBKTNV-1" source="dFhFB-FMK87UMPbcX7T7-48" target="dFhFB-FMK87UMPbcX7T7-50">
          <mxGeometry relative="1" as="geometry" />
        </mxCell>
        <mxCell id="dFhFB-FMK87UMPbcX7T7-48" value="&lt;b style=&quot;font-size: 10px;&quot;&gt;&quot;customer@domain.com&quot;&lt;/b&gt;&lt;br&gt;Add rate to this ticket" style="whiteSpace=wrap;html=1;rounded=0;" vertex="1" parent="WIyWlLk6GJQsqaUBKTNV-1">
          <mxGeometry x="560" y="940" width="140" height="60" as="geometry" />
        </mxCell>
        <mxCell id="dFhFB-FMK87UMPbcX7T7-50" value="END" style="whiteSpace=wrap;html=1;rounded=0;" vertex="1" parent="WIyWlLk6GJQsqaUBKTNV-1">
          <mxGeometry x="500" y="1070" width="120" height="60" as="geometry" />
        </mxCell>
        <mxCell id="dFhFB-FMK87UMPbcX7T7-57" value="" style="edgeStyle=orthogonalEdgeStyle;rounded=0;orthogonalLoop=1;jettySize=auto;html=1;strokeColor=default;align=center;verticalAlign=middle;fontFamily=Helvetica;fontSize=11;fontColor=default;labelBackgroundColor=default;endArrow=classic;flowAnimation=1;" edge="1" parent="WIyWlLk6GJQsqaUBKTNV-1" source="dFhFB-FMK87UMPbcX7T7-52" target="dFhFB-FMK87UMPbcX7T7-56">
          <mxGeometry relative="1" as="geometry" />
        </mxCell>
        <mxCell id="dFhFB-FMK87UMPbcX7T7-52" value="Closed&lt;br&gt;(save as draft)" style="whiteSpace=wrap;html=1;rounded=0;" vertex="1" parent="WIyWlLk6GJQsqaUBKTNV-1">
          <mxGeometry x="100" y="660" width="120" height="60" as="geometry" />
        </mxCell>
        <mxCell id="dFhFB-FMK87UMPbcX7T7-59" value="" style="edgeStyle=orthogonalEdgeStyle;rounded=0;orthogonalLoop=1;jettySize=auto;html=1;strokeColor=default;align=center;verticalAlign=middle;fontFamily=Helvetica;fontSize=11;fontColor=default;labelBackgroundColor=default;endArrow=classic;flowAnimation=1;" edge="1" parent="WIyWlLk6GJQsqaUBKTNV-1" source="dFhFB-FMK87UMPbcX7T7-56" target="dFhFB-FMK87UMPbcX7T7-58">
          <mxGeometry relative="1" as="geometry" />
        </mxCell>
        <mxCell id="dFhFB-FMK87UMPbcX7T7-74" value="YES" style="edgeLabel;html=1;align=center;verticalAlign=middle;resizable=0;points=[];fontFamily=Helvetica;fontSize=11;fontColor=default;labelBackgroundColor=default;" vertex="1" connectable="0" parent="dFhFB-FMK87UMPbcX7T7-59">
          <mxGeometry x="-0.4857" y="-2" relative="1" as="geometry">
            <mxPoint as="offset" />
          </mxGeometry>
        </mxCell>
        <mxCell id="dFhFB-FMK87UMPbcX7T7-73" value="" style="edgeStyle=orthogonalEdgeStyle;rounded=0;orthogonalLoop=1;jettySize=auto;html=1;strokeColor=default;align=center;verticalAlign=middle;fontFamily=Helvetica;fontSize=11;fontColor=default;labelBackgroundColor=default;endArrow=classic;flowAnimation=1;" edge="1" parent="WIyWlLk6GJQsqaUBKTNV-1" source="dFhFB-FMK87UMPbcX7T7-56" target="dFhFB-FMK87UMPbcX7T7-72">
          <mxGeometry relative="1" as="geometry" />
        </mxCell>
        <mxCell id="dFhFB-FMK87UMPbcX7T7-75" value="NO" style="edgeLabel;html=1;align=center;verticalAlign=middle;resizable=0;points=[];fontFamily=Helvetica;fontSize=11;fontColor=default;labelBackgroundColor=default;" vertex="1" connectable="0" parent="dFhFB-FMK87UMPbcX7T7-73">
          <mxGeometry x="-0.28" y="-4" relative="1" as="geometry">
            <mxPoint as="offset" />
          </mxGeometry>
        </mxCell>
        <mxCell id="dFhFB-FMK87UMPbcX7T7-56" value="has next level" style="rhombus;whiteSpace=wrap;html=1;rounded=0;" vertex="1" parent="WIyWlLk6GJQsqaUBKTNV-1">
          <mxGeometry x="110" y="770" width="100" height="100" as="geometry" />
        </mxCell>
        <mxCell id="dFhFB-FMK87UMPbcX7T7-61" value="" style="edgeStyle=orthogonalEdgeStyle;rounded=0;orthogonalLoop=1;jettySize=auto;html=1;strokeColor=default;align=center;verticalAlign=middle;fontFamily=Helvetica;fontSize=11;fontColor=default;labelBackgroundColor=default;endArrow=classic;flowAnimation=1;" edge="1" parent="WIyWlLk6GJQsqaUBKTNV-1" source="dFhFB-FMK87UMPbcX7T7-58" target="dFhFB-FMK87UMPbcX7T7-60">
          <mxGeometry relative="1" as="geometry" />
        </mxCell>
        <mxCell id="dFhFB-FMK87UMPbcX7T7-58" value="Send Mail To Next Levet To Approv This Status" style="whiteSpace=wrap;html=1;rounded=0;" vertex="1" parent="WIyWlLk6GJQsqaUBKTNV-1">
          <mxGeometry x="280" y="790" width="120" height="60" as="geometry" />
        </mxCell>
        <mxCell id="dFhFB-FMK87UMPbcX7T7-68" value="" style="edgeStyle=orthogonalEdgeStyle;rounded=0;orthogonalLoop=1;jettySize=auto;html=1;strokeColor=default;align=center;verticalAlign=middle;fontFamily=Helvetica;fontSize=11;fontColor=default;labelBackgroundColor=default;endArrow=classic;flowAnimation=1;" edge="1" parent="WIyWlLk6GJQsqaUBKTNV-1" source="dFhFB-FMK87UMPbcX7T7-60" target="dFhFB-FMK87UMPbcX7T7-67">
          <mxGeometry relative="1" as="geometry" />
        </mxCell>
        <mxCell id="dFhFB-FMK87UMPbcX7T7-69" value="NO" style="edgeLabel;html=1;align=center;verticalAlign=middle;resizable=0;points=[];fontFamily=Helvetica;fontSize=11;fontColor=default;labelBackgroundColor=default;" vertex="1" connectable="0" parent="dFhFB-FMK87UMPbcX7T7-68">
          <mxGeometry x="-0.3333" relative="1" as="geometry">
            <mxPoint as="offset" />
          </mxGeometry>
        </mxCell>
        <mxCell id="dFhFB-FMK87UMPbcX7T7-76" style="edgeStyle=orthogonalEdgeStyle;rounded=0;orthogonalLoop=1;jettySize=auto;html=1;entryX=1;entryY=0.5;entryDx=0;entryDy=0;strokeColor=default;align=center;verticalAlign=middle;fontFamily=Helvetica;fontSize=11;fontColor=default;labelBackgroundColor=default;endArrow=classic;flowAnimation=1;" edge="1" parent="WIyWlLk6GJQsqaUBKTNV-1" source="dFhFB-FMK87UMPbcX7T7-60" target="dFhFB-FMK87UMPbcX7T7-72">
          <mxGeometry relative="1" as="geometry" />
        </mxCell>
        <mxCell id="dFhFB-FMK87UMPbcX7T7-77" value="YES" style="edgeLabel;html=1;align=center;verticalAlign=middle;resizable=0;points=[];fontFamily=Helvetica;fontSize=11;fontColor=default;labelBackgroundColor=default;" vertex="1" connectable="0" parent="dFhFB-FMK87UMPbcX7T7-76">
          <mxGeometry x="-0.1467" y="-4" relative="1" as="geometry">
            <mxPoint as="offset" />
          </mxGeometry>
        </mxCell>
        <mxCell id="dFhFB-FMK87UMPbcX7T7-60" value="Approved" style="rhombus;whiteSpace=wrap;html=1;rounded=0;" vertex="1" parent="WIyWlLk6GJQsqaUBKTNV-1">
          <mxGeometry x="300" y="930" width="80" height="80" as="geometry" />
        </mxCell>
        <mxCell id="dFhFB-FMK87UMPbcX7T7-67" value="Send mail to user&amp;nbsp;&lt;br&gt;&quot;reject closed req...etc&quot;" style="whiteSpace=wrap;html=1;rounded=0;" vertex="1" parent="WIyWlLk6GJQsqaUBKTNV-1">
          <mxGeometry x="248" y="1060" width="140" height="60" as="geometry" />
        </mxCell>
        <mxCell id="dFhFB-FMK87UMPbcX7T7-79" value="" style="edgeStyle=orthogonalEdgeStyle;rounded=0;orthogonalLoop=1;jettySize=auto;html=1;strokeColor=default;align=center;verticalAlign=middle;fontFamily=Helvetica;fontSize=11;fontColor=default;labelBackgroundColor=default;endArrow=classic;flowAnimation=1;" edge="1" parent="WIyWlLk6GJQsqaUBKTNV-1" source="dFhFB-FMK87UMPbcX7T7-72" target="dFhFB-FMK87UMPbcX7T7-78">
          <mxGeometry relative="1" as="geometry" />
        </mxCell>
        <mxCell id="dFhFB-FMK87UMPbcX7T7-72" value="Send Mail to&lt;br&gt;&lt;b style=&quot;font-size: 10px;&quot;&gt;&quot;customer@domain.com&quot;&lt;/b&gt;&lt;br&gt;&quot;ticket #1111 Closed...etc&quot;" style="whiteSpace=wrap;html=1;rounded=0;" vertex="1" parent="WIyWlLk6GJQsqaUBKTNV-1">
          <mxGeometry x="20" y="910" width="160" height="60" as="geometry" />
        </mxCell>
        <mxCell id="dFhFB-FMK87UMPbcX7T7-78" value="END" style="whiteSpace=wrap;html=1;rounded=0;" vertex="1" parent="WIyWlLk6GJQsqaUBKTNV-1">
          <mxGeometry x="40" y="1050" width="120" height="60" as="geometry" />
        </mxCell>
      </root>
    </mxGraphModel>
  </diagram>
</mxfile>
